<?xml version="1.0" encoding="iso-8859-1"?>
<!-- Uploaded to: SVG Repo, www.svgrepo.com, Generator: SVG Repo Mixer Tools -->
<svg version="1.1" id="Layer_1" xmlns="http://www.w3.org/2000/svg" xmlns:xlink="http://www.w3.org/1999/xlink" 
	 viewBox="0 0 512 512" xml:space="preserve">
<polygon style="fill:#A5001E;" points="281.678,347.34 202.675,371.841 188.706,510.2 117.859,439.354 85.993,471.22 
	74.951,460.178 106.817,428.312 0,321.495 138.641,307.817 162.85,228.512 "/>
<circle style="fill:#FFDA44;" cx="256.781" cy="256.06" r="255.219"/>
<polygon style="fill:#FF9811;" points="281.678,347.34 202.675,371.841 188.706,510.2 117.859,439.354 85.993,471.22 
	74.951,460.178 106.817,428.312 0,321.495 138.641,307.817 162.85,228.512 "/>
<path style="fill:#A0815C;" d="M503.989,40.681l-51.96,51.825c0.094,0.104,0.177,0.219,0.271,0.323l-11.105,11.105
	c-0.094-0.115-0.188-0.229-0.281-0.344L280.345,263.743l-33.731,33.71l-0.073,0.073l-11.053-11.042l0.083-0.073l-11.011-11.011
	l-0.073,0.073l-11.042-11.042l0.073-0.073L340.524,137.3l0.052,0.052l67.044-66.774c-0.24-0.198-0.49-0.385-0.729-0.573
	l11.115-11.115c0.25,0.198,0.5,0.396,0.75,0.604l52.148-51.929c4.406-4.406,10.282-6.844,16.542-6.844
	c6.25,0,12.126,2.438,16.542,6.854C513.115,16.701,513.115,31.556,503.989,40.681z"/>
<path d="M452.028,92.507l51.966-51.828c9.124-9.125,9.124-23.974-0.001-33.099c-4.42-4.42-10.298-6.854-16.55-6.854
	c-6.252,0-12.131,2.434-16.538,6.843l-52.146,51.926C373.246,21.961,315.969,1.357,256.781,1.357
	c-68.033,0-131.993,26.494-180.099,74.599C28.577,124.063,2.083,188.022,2.083,256.055c0,13.318,1.038,26.693,3.086,39.754
	l15.436-2.42c-1.922-12.263-2.896-24.824-2.896-37.334c0-63.859,24.868-123.895,70.023-169.05
	c45.154-45.155,105.191-70.023,169.05-70.023c55.043,0,108.317,18.991,150.841,53.601L328.2,149.67l11.025,11.072L481.943,18.629
	c1.469-1.47,3.422-2.278,5.5-2.278c2.077,0,4.031,0.809,5.5,2.278c3.033,3.033,3.032,7.969,0.008,10.995L264.167,257.806
	l11.034,11.064l165.716-165.28c35.474,42.807,54.937,96.635,54.937,152.465c0,63.859-24.868,123.895-70.023,169.05
	c-45.155,45.155-105.192,70.023-169.05,70.023c-14.232,0-28.49-1.259-42.378-3.743l-2.751,15.382
	c14.793,2.646,29.976,3.988,45.128,3.988c68.033,0,131.993-26.494,180.099-74.599c48.106-48.107,74.6-112.067,74.6-180.1
	C511.479,196.094,490.411,138.293,452.028,92.507z"/>
<g>
	<path style="fill:#FFFFFF;" d="M85.798,142.344l13.003,8.664c28.915-43.394,74.823-73.267,125.953-81.958l-2.618-15.405
		C166.783,63.055,117.088,95.384,85.798,142.344z"/>
	<path style="fill:#FFFFFF;" d="M59.91,197.58l14.981,4.443c3.156-10.642,7.287-21.074,12.277-31.006l-13.963-7.014
		C67.801,174.758,63.328,186.055,59.91,197.58z"/>
</g>
<rect x="198.246" y="212.123" transform="matrix(-0.7071 0.7071 -0.7071 -0.7071 614.7086 185.2518)" width="141.484" height="15.625"/>
<rect x="238.126" y="277.206" transform="matrix(0.7071 -0.7071 0.7071 0.7071 -128.9008 258.8434)" width="19.75" height="15.625"/>
<polygon points="252.055,317.717 241.005,328.765 252.325,340.084 197.284,357.152 175.768,335.635 164.718,346.684 
	187.241,369.206 176.466,475.863 167.229,466.626 174.898,458.957 163.847,447.908 156.179,455.576 139.606,439.003 
	148.011,430.598 136.961,419.549 128.556,427.953 110.943,410.34 127.837,393.447 116.787,382.398 99.894,399.291 83.38,382.778 
	107.623,358.534 96.574,347.484 72.331,371.728 55.817,355.214 65.36,345.671 54.311,334.621 44.767,344.165 34.407,333.804 
	150.549,322.343 170.198,257.957 175.037,262.797 166.748,290.615 181.723,295.077 187.598,275.359 217.484,305.245 
	228.534,294.196 162.846,228.508 138.645,307.815 0.002,321.498 106.813,428.309 74.947,460.174 85.997,471.223 117.862,439.358 
	188.701,510.197 202.679,371.839 281.679,347.342 "/>
<rect x="146.041" y="400.689" transform="matrix(0.7071 -0.7071 0.7071 0.7071 -242.2658 232.1214)" width="26.042" height="15.625"/>
<rect x="195.072" y="134.34" transform="matrix(0.7071 0.7071 -0.7071 0.7071 172.9048 -96.4554)" width="15.625" height="52.293"/>
<rect x="38.842" y="243.028" transform="matrix(0.7071 -0.7071 0.7071 0.7071 -144.4206 153.0198)" width="147.317" height="15.625"/>
<rect x="406.423" y="152.673" transform="matrix(-0.7071 0.7071 -0.7071 -0.7071 851.9234 -31.9067)" width="52.293" height="15.625"/>
<rect x="268.542" y="243.033" transform="matrix(-0.7071 0.7071 -0.7071 -0.7071 761.5474 186.2478)" width="147.317" height="15.625"/>
<rect x="287.15" y="355.276" transform="matrix(0.7071 -0.7071 0.7071 0.7071 -164.98 327.8807)" width="52.293" height="15.625"/>
<rect x="206.481" y="421.947" transform="matrix(0.7071 -0.7071 0.7071 0.7071 -231.6503 300.2657)" width="80.294" height="15.625"/>
<rect x="27.886" y="411.894" transform="matrix(0.7071 0.7071 -0.7071 0.7071 331.6586 107.8033)" width="15.625" height="84.711"/>
</svg>